<svg width="1240" height="1240" viewBox="0 0 1240 1240" fill="none" xmlns="http://www.w3.org/2000/svg">
<path d="M472.801 124C696.366 124 877.602 305.235 877.602 528.801C877.601 752.366 696.366 933.602 472.801 933.602C420.706 933.602 370.91 923.758 325.169 905.834L241.054 946.006L146.661 991.084L197.923 825.964C118.022 752.02 68.0001 646.252 68 528.801C68 305.235 249.235 124 472.801 124Z" fill="url(#paint0_linear_5_55)"/>
<path d="M779.578 266.799C996.794 266.799 1172.88 442.888 1172.88 660.104C1172.88 771.808 1126.31 872.634 1051.53 944.23L1099.06 1115.13L927.93 1024.47C882.15 1043.13 832.065 1053.41 779.578 1053.41C562.362 1053.41 386.273 877.319 386.273 660.104C386.273 442.888 562.362 266.799 779.578 266.799Z" fill="url(#paint1_linear_5_55)"/>
<path d="M781.389 266.806C841.395 337.414 877.602 428.879 877.602 528.801C877.601 744.482 708.923 920.766 496.288 932.931C428.166 862.212 386.273 766.05 386.273 660.104C386.273 442.888 562.362 266.799 779.578 266.799C780.182 266.799 780.785 266.803 781.389 266.806Z" fill="url(#paint2_linear_5_55)"/>
<path d="M779.701 614.93C784.116 614.834 788.445 617.085 790.809 621.179C794.26 627.157 792.212 634.802 786.233 638.254L679.333 699.973C673.354 703.424 665.71 701.376 662.258 695.397C658.806 689.419 660.855 681.774 666.833 678.322L733.333 639.929H438.311C431.407 639.928 425.811 634.332 425.811 627.429C425.811 620.525 431.407 614.929 438.311 614.929H779.578C779.619 614.929 779.66 614.929 779.701 614.93ZM454.249 499.218C460.228 495.766 467.873 497.814 471.324 503.793C474.776 509.771 472.727 517.416 466.749 520.868L400.25 559.262H673.084C679.987 559.262 685.584 564.858 685.584 571.762C685.584 578.665 679.987 584.261 673.084 584.262H353.6C353.566 584.262 353.532 584.26 353.498 584.26C353.382 584.259 353.266 584.256 353.149 584.252C353.046 584.248 352.942 584.243 352.839 584.237C352.781 584.234 352.724 584.23 352.666 584.226C352.493 584.213 352.321 584.196 352.15 584.177C352.139 584.175 352.128 584.175 352.117 584.174C350.492 583.982 348.963 583.478 347.59 582.724C347.554 582.704 347.52 582.683 347.484 582.663C347.351 582.588 347.218 582.513 347.088 582.434C346.961 582.356 346.837 582.274 346.712 582.191C346.675 582.167 346.638 582.145 346.602 582.12C345.311 581.25 344.167 580.128 343.251 578.772C343.236 578.75 343.22 578.728 343.205 578.705C343.113 578.567 343.024 578.428 342.937 578.285C342.902 578.229 342.869 578.173 342.836 578.116C342.815 578.081 342.795 578.047 342.774 578.012C342.75 577.97 342.727 577.928 342.703 577.886C342.639 577.772 342.577 577.657 342.517 577.541C342.483 577.477 342.449 577.412 342.417 577.348C342.367 577.248 342.319 577.149 342.271 577.048C342.224 576.945 342.178 576.842 342.133 576.739C342.106 576.677 342.078 576.615 342.052 576.552C342.004 576.436 341.958 576.32 341.914 576.203C341.781 575.853 341.66 575.496 341.559 575.132C341.516 574.978 341.476 574.824 341.439 574.67C341.43 574.632 341.421 574.594 341.412 574.556C341.354 574.302 341.306 574.046 341.264 573.791C341.244 573.672 341.226 573.553 341.21 573.434C341.196 573.327 341.183 573.219 341.172 573.112C341.165 573.052 341.16 572.991 341.154 572.931C341.142 572.795 341.13 572.659 341.122 572.522C341.117 572.441 341.114 572.359 341.11 572.276C341.105 572.149 341.102 572.022 341.101 571.895C341.1 571.851 341.1 571.806 341.1 571.762C341.1 571.727 341.1 571.693 341.101 571.658C341.101 571.568 341.102 571.478 341.104 571.388C341.108 571.255 341.115 571.123 341.123 570.991C341.126 570.938 341.129 570.884 341.133 570.831C341.267 569.007 341.793 567.291 342.627 565.769C342.687 565.659 342.75 565.551 342.813 565.443C342.848 565.384 342.881 565.324 342.917 565.266C343.824 563.77 345.057 562.447 346.584 561.414C346.612 561.395 346.641 561.377 346.669 561.358C346.788 561.279 346.909 561.201 347.032 561.125C347.113 561.075 347.195 561.027 347.277 560.979C347.301 560.964 347.325 560.95 347.35 560.937L454.249 499.218Z" fill="url(#paint3_linear_5_55)" fill-opacity="0.77"/>
<defs>
<linearGradient id="paint0_linear_5_55" x1="1138.39" y1="-339.494" x2="219.877" y2="879.144" gradientUnits="userSpaceOnUse">
<stop offset="0.607206" stop-color="#2075B6"/>
<stop offset="1" stop-color="#2D3580"/>
</linearGradient>
<linearGradient id="paint1_linear_5_55" x1="276.148" y1="1224.65" x2="1639.4" y2="-70.8376" gradientUnits="userSpaceOnUse">
<stop offset="0.364284" stop-color="#3F80B8"/>
<stop offset="0.600433" stop-color="#90CBDD"/>
</linearGradient>
<linearGradient id="paint2_linear_5_55" x1="1269.7" y1="919.08" x2="454.647" y2="304.315" gradientUnits="userSpaceOnUse">
<stop offset="0.607206" stop-color="#2075B6"/>
<stop offset="1" stop-color="#2D3580"/>
</linearGradient>
<linearGradient id="paint3_linear_5_55" x1="309.593" y1="599.595" x2="813.075" y2="599.595" gradientUnits="userSpaceOnUse">
<stop stop-color="#EAF6FF"/>
<stop offset="1" stop-color="#C2DAED"/>
</linearGradient>
</defs>
</svg>
